<?xml version="1.0" encoding="UTF-8" standalone="no"?>
<!-- Created with matplotlib (http://matplotlib.org/) -->

<svg
   xmlns:dc="http://purl.org/dc/elements/1.1/"
   xmlns:cc="http://creativecommons.org/ns#"
   xmlns:rdf="http://www.w3.org/1999/02/22-rdf-syntax-ns#"
   xmlns:svg="http://www.w3.org/2000/svg"
   xmlns="http://www.w3.org/2000/svg"
   xmlns:sodipodi="http://sodipodi.sourceforge.net/DTD/sodipodi-0.dtd"
   xmlns:inkscape="http://www.inkscape.org/namespaces/inkscape"
   height="540"
   version="1.1"
   viewBox="0 0 576 432"
   width="720"
   id="svg2"
   inkscape:version="0.48.4 r9939"
   sodipodi:docname="normal1d.pdf">
  <metadata
     id="metadata26">
    <rdf:RDF>
      <cc:Work
         rdf:about="">
        <dc:format>image/svg+xml</dc:format>
        <dc:type
           rdf:resource="http://purl.org/dc/dcmitype/StillImage" />
        <dc:title></dc:title>
      </cc:Work>
    </rdf:RDF>
  </metadata>
  <sodipodi:namedview
     pagecolor="#ffffff"
     bordercolor="#666666"
     borderopacity="1"
     objecttolerance="10"
     gridtolerance="10"
     guidetolerance="10"
     inkscape:pageopacity="0"
     inkscape:pageshadow="2"
     inkscape:window-width="1366"
     inkscape:window-height="712"
     id="namedview24"
     showgrid="false"
     units="in"
     inkscape:document-units="in"
     inkscape:snap-global="false"
     inkscape:snap-nodes="true"
     inkscape:snap-center="true"
     inkscape:snap-bbox="false"
     inkscape:zoom="0.89074074"
     inkscape:cx="360"
     inkscape:cy="314.90644"
     inkscape:window-x="0"
     inkscape:window-y="32"
     inkscape:window-maximized="1"
     inkscape:current-layer="svg2">
    <inkscape:grid
       type="xygrid"
       id="grid3003"
       empspacing="5"
       visible="true"
       enabled="true"
       snapvisiblegridlinesonly="true"
       units="in"
       spacingx="0.25in"
       spacingy="0.25in" />
  </sodipodi:namedview>
  <defs
     id="defs4"
     style="stroke-linecap:butt;stroke-linejoin:round">
    <marker
       inkscape:stockid="Arrow1Lend"
       orient="auto"
       refY="0.0"
       refX="0.0"
       id="Arrow1Lend"
       style="overflow:visible;">
      <path
         id="path3782"
         d="M 0.0,0.0 L 5.0,-5.0 L -12.5,0.0 L 5.0,5.0 L 0.0,0.0 z "
         style="fill-rule:evenodd;stroke:#000000;stroke-width:1.0pt;"
         transform="scale(0.8) rotate(180) translate(12.5,0)" />
    </marker>
    <marker
       inkscape:stockid="Arrow1Mstart"
       orient="auto"
       refY="0.0"
       refX="0.0"
       id="Arrow1Mstart"
       style="overflow:visible">
      <path
         id="path3785"
         d="M 0.0,0.0 L 5.0,-5.0 L -12.5,0.0 L 5.0,5.0 L 0.0,0.0 z "
         style="fill-rule:evenodd;stroke:#000000;stroke-width:1.0pt"
         transform="scale(0.4) translate(10,0)" />
    </marker>
    <marker
       inkscape:stockid="Arrow2Mend"
       orient="auto"
       refY="0.0"
       refX="0.0"
       id="Arrow2Mend"
       style="overflow:visible;">
      <path
         id="path3806"
         style="fill-rule:evenodd;stroke-width:0.62500000;stroke-linejoin:round;"
         d="M 8.7185878,4.0337352 L -2.2072895,0.016013256 L 8.7185884,-4.0017078 C 6.9730900,-1.6296469 6.9831476,1.6157441 8.7185878,4.0337352 z "
         transform="scale(0.6) rotate(180) translate(0,0)" />
    </marker>
    <marker
       inkscape:stockid="Arrow1Mend"
       orient="auto"
       refY="0.0"
       refX="0.0"
       id="Arrow1Mend"
       style="overflow:visible;">
      <path
         id="path3788"
         d="M 0.0,0.0 L 5.0,-5.0 L -12.5,0.0 L 5.0,5.0 L 0.0,0.0 z "
         style="fill-rule:evenodd;stroke:#000000;stroke-width:1.0pt;"
         transform="scale(0.4) rotate(180) translate(10,0)" />
    </marker>
    <style
       type="text/css"
       id="style6">
*{stroke-linecap:butt;stroke-linejoin:round;}
  </style>
  </defs>
  <g
     id="figure_1"
     style="stroke-linecap:butt;stroke-linejoin:round"
     transform="matrix(0.47605184,0,0,0.58474576,83.537404,62.751048)">
    <g
       id="patch_1"
       style="stroke-linecap:butt;stroke-linejoin:round">
      <path
         d="M 0,432 576,432 576,0 0,0 z"
         style="fill:#ffffff;stroke-linecap:butt;stroke-linejoin:round"
         id="path10"
         inkscape:connector-curvature="0" />
    </g>
    <g
       id="axes_1"
       style="stroke-linecap:butt;stroke-linejoin:round">
      <g
         id="line2d_1"
         style="stroke-linecap:butt;stroke-linejoin:round">
        <path
           clip-path="url(#p7ff5b81e1d)"
           d="m 72,384.971 5.3783,-0.915 5.3783,-1.103 5.3783,-1.322 5.3784,-1.574 5.3783,-1.865 5.3784,-2.196 3.585,-1.669 3.586,-1.848 3.586,-2.042 3.585,-2.249 3.586,-2.472 3.585,-2.707 3.586,-2.958 3.585,-3.223 3.586,-3.502 3.585,-3.794 3.586,-4.099 3.585,-4.415 3.586,-4.744 3.585,-5.08 3.586,-5.425 3.586,-5.775 3.585,-6.131 3.586,-6.488 3.585,-6.844 3.586,-7.198 5.378,-11.444 5.378,-12.193 5.379,-12.892 5.378,-13.525 5.378,-14.074 7.171,-19.444 10.757,-30.024 10.757,-30.008 7.171,-19.344 5.378,-13.863 5.378,-13.112 3.586,-8.2358 3.585,-7.7731 3.586,-7.2613 3.586,-6.7028 3.585,-6.1009 3.586,-5.4588 3.585,-4.7802 1.793,-2.1254 1.793,-1.9439 1.792,-1.7593 1.793,-1.5715 1.793,-1.3811 1.793,-1.1882 1.793,-0.9934 1.792,-0.7968 1.793,-0.5988 1.793,-0.3997 1.793,-0.2001 1.792,0 1.793,0.2001 1.793,0.3997 1.793,0.5988 1.792,0.7968 1.793,0.9934 1.793,1.1882 1.793,1.3811 1.793,1.5715 1.792,1.7593 1.793,1.9439 1.793,2.1254 3.585,4.7802 3.586,5.4588 3.585,6.1009 3.586,6.7028 3.586,7.2613 3.585,7.7731 3.586,8.2358 5.378,13.112 5.378,13.863 5.379,14.436 8.963,24.849 16.135,45.012 7.171,19.27 5.379,13.901 5.378,13.322 5.378,12.666 5.379,11.948 5.378,11.187 3.586,7.021 3.585,6.667 3.586,6.309 3.585,5.953 3.586,5.599 3.585,5.252 3.586,4.911 3.585,4.578 3.586,4.256 3.585,3.945 3.586,3.646 3.586,3.361 3.585,3.088 3.586,2.831 3.585,2.588 3.586,2.358 3.585,2.144 3.586,1.943 3.585,1.757 3.586,1.584 5.378,2.081 5.379,1.764 5.378,1.486 5.378,1.245 5.378,1.037 3.586,0.591 0,0"
           style="fill:none;stroke:#000000;stroke-width:3;stroke-linecap:square;stroke-linejoin:round"
           id="path14"
           inkscape:connector-curvature="0" />
      </g>
      <g
         id="line2d_2"
         style="stroke-linecap:butt;stroke-linejoin:round">
        <path
           clip-path="url(#p7ff5b81e1d)"
           d="m 207.601,216.469 1.769,0 1.77,0 1.77,0 1.769,0 1.77,0 1.77,0 1.769,0 1.77,0 1.77,0 1.77,0 1.769,0 1.77,0 1.77,0 1.769,0 1.77,0 1.77,0 1.769,0 1.77,0 1.77,0 1.769,0 1.77,0 1.77,0 1.769,0 1.77,0 1.77,0 1.769,0 1.77,0 1.77,0 1.769,0 1.77,0 1.77,0 1.77,0 1.769,0 1.77,0 1.77,0 1.769,0 1.77,0 1.77,0 1.769,0 1.77,0 1.77,0 1.769,0 1.77,0 1.77,0 1.769,0 1.77,0 1.77,0 1.769,0 1.77,0 1.77,0 1.77,0 1.769,0 1.77,0 1.77,0 1.769,0 1.77,0 1.77,0 1.769,0 1.77,0 1.77,0 1.769,0 1.77,0 1.77,0 1.769,0 1.77,0 1.77,0 1.769,0 1.77,0 1.77,0 1.77,0 1.769,0 1.77,0 1.77,0 1.769,0 1.77,0 1.77,0 1.769,0 1.77,0 1.77,0 1.769,0 1.77,0 1.77,0 1.769,0 1.77,0 1.77,0 1.769,0 1.77,0 1.77,0 1.769,0 1.77,0 1.77,0 1.77,0 1.769,0 1.77,0 1.77,0 1.769,0 1.77,0 1.77,0 1.769,0"
           style="fill:none;stroke:#000000;stroke-width:3;stroke-linecap:square;stroke-linejoin:round"
           id="path17"
           inkscape:connector-curvature="0" />
      </g>
    </g>
  </g>
  <defs
     id="defs19">
    <clipPath
       id="p7ff5b81e1d">
      <rect
         height="345.60001"
         width="446.39999"
         x="72"
         y="43.200001"
         id="rect22"
         style="stroke-linecap:butt;stroke-linejoin:round" />
    </clipPath>
  </defs>
  <path
     style="fill:none;stroke:#000000;stroke-width:0.99000000000000021;stroke-linecap:butt;stroke-linejoin:miter;stroke-opacity:1;stroke-miterlimit:4;stroke-dasharray:none;marker-end:url(#Arrow1Lend)"
     d="m 112.5,360 450,0"
     id="path3005"
     inkscape:connector-curvature="0"
     transform="scale(0.8,0.8)" />
  <path
     style="fill:none;stroke:#000000;stroke-width:1px;stroke-linecap:butt;stroke-linejoin:miter;stroke-opacity:1;marker-end:url(#Arrow1Lend)"
     d="M 202.5,427.5 202.5,45"
     id="path5521"
     inkscape:connector-curvature="0"
     transform="scale(0.8,0.8)" />
  <path
     style="fill:none;stroke:#000000;stroke-width:1;stroke-linecap:butt;stroke-linejoin:miter;stroke-opacity:1;stroke-miterlimit:4;stroke-dasharray:2,4;stroke-dashoffset:0"
     d="m 229.02287,236.8815 0,123.49272"
     id="path5711"
     inkscape:connector-curvature="0"
     transform="scale(0.8,0.8)" />
  <path
     style="fill:none;stroke:#000000;stroke-width:1;stroke-linecap:butt;stroke-linejoin:miter;stroke-opacity:1;stroke-miterlimit:4;stroke-dasharray:2,4;stroke-dashoffset:0"
     d="m 331.18503,239.12682 0,121.2474"
     id="path5713"
     inkscape:connector-curvature="0"
     transform="scale(0.8,0.8)" />
  <path
     style="fill:#ff0000;stroke:#ff0000;stroke-width:5.40000000000000036;stroke-linecap:butt;stroke-linejoin:miter;stroke-opacity:1;stroke-miterlimit:4;stroke-dasharray:none"
     d="m 229.02287,359.25156 102.16216,0"
     id="path5717"
     inkscape:connector-curvature="0"
     transform="scale(0.8,0.8)"
     sodipodi:nodetypes="cc" />
</svg>
